<svg xmlns="http://www.w3.org/2000/svg" version="1.1" viewBox="0 1.4321211576461792 961.2354125976562 965.56787109375" width="963.00" height="967.00">
<g stroke-width="2.00" fill="none" stroke-linecap="butt">
<path stroke="#956782" d="&#10;  M 949.77 586.35&#10;  Q 949.45 582.85 949.36 579.44&#10;  Q 949.25 575.70 948.58 572.68&#10;  C 946.88 565.08 946.01 557.52 944.08 550.13&#10;  Q 940.95 538.16 937.94 525.44&#10;  C 936.70 520.19 935.01 515.11 933.64 509.92&#10;  C 932.86 506.95 931.50 504.21 930.74 501.21&#10;  C 929.60 496.65 927.70 492.58 926.32 488.18&#10;  Q 925.16 484.50 924.02 481.34&#10;  C 921.54 474.49 919.16 467.25 916.04 460.70&#10;  C 912.26 452.75 909.30 444.79 905.15 436.58&#10;  C 898.76 423.93 892.98 411.94 885.71 400.08&#10;  Q 877.55 386.77 868.72 372.58&#10;  C 866.25 368.62 863.24 365.25 860.67 361.53&#10;  Q 841.35 333.52 817.80 308.40&#10;  Q 812.94 303.21 807.69 297.65&#10;  Q 804.81 294.60 801.71 291.78&#10;  C 796.50 287.07 791.99 282.05 786.66 277.43&#10;  Q 777.94 269.87 768.38 261.63&#10;  C 763.51 257.43 758.33 254.12 753.51 250.15&#10;  C 746.23 244.15 738.36 239.54 730.76 233.80&#10;  C 723.71 228.47 716.10 223.91 708.69 219.13&#10;  C 704.80 216.61 700.39 214.68 696.48 212.36&#10;  Q 676.23 200.32 653.67 190.92&#10;  C 649.81 189.31 646.26 187.19 642.35 185.85&#10;  Q 637.91 184.33 633.73 182.50&#10;  Q 624.64 178.51 613.61 175.32&#10;  Q 599.27 171.17 584.86 166.97&#10;  C 580.80 165.79 576.73 165.24 572.79 164.04&#10;  Q 568.28 162.66 564.00 161.93&#10;  Q 554.99 160.38 546.37 158.82&#10;  C 538.30 157.36 529.67 156.72 521.28 155.46&#10;  Q 515.97 154.65 511.03 154.27&#10;  Q 497.48 153.21 486.50 152.84&#10;  Q 473.91 152.41 453.20 152.93&#10;  C 448.11 153.05 442.81 153.42 437.58 153.58&#10;  Q 431.40 153.77 425.93 154.29&#10;  Q 410.18 155.80 403.51 156.71&#10;  Q 377.70 160.24 352.60 167.07&#10;  Q 347.03 168.59 341.53 169.98&#10;  C 334.75 171.70 327.84 173.22 321.15 175.53&#10;  C 309.86 179.43 298.92 183.67 286.83 188.48&#10;  C 278.57 191.76 270.39 195.33 262.61 199.54&#10;  C 255.72 203.26 248.86 206.11 242.31 209.96&#10;  C 236.95 213.11 232.14 216.03 226.19 219.23&#10;  C 214.38 225.60 203.54 233.91 192.44 241.68&#10;  Q 180.33 250.16 163.60 263.87&#10;  Q 150.67 274.46 140.37 284.87&#10;  C 137.44 287.82 134.08 290.21 131.18 293.18&#10;  Q 125.28 299.23 119.18 305.42&#10;  C 116.58 308.06 114.32 310.99 111.74 313.58&#10;  C 106.57 318.76 101.85 324.25 96.84 329.75&#10;  C 94.69 332.11 93.19 334.82 91.00 337.19&#10;  Q 88.54 339.86 86.40 342.70&#10;  Q 76.74 355.48 67.60 368.36&#10;  Q 65.12 371.84 62.57 376.03&#10;  Q 60.46 379.51 57.71 383.46&#10;  C 54.69 387.81 51.92 392.76 48.75 397.29&#10;  Q 41.05 408.31 35.66 419.62&#10;  Q 31.76 427.79 28.00 435.04&#10;  Q 18.91 452.53 11.28 473.01&#10;  Q 9.72 477.21 8.63 479.87&#10;  Q 7.22 483.32 6.03 486.72&#10;  Q 3.05 495.23 0.00 503.87"/>
<path stroke="#956782" d="&#10;  M 937.39 630.77&#10;  Q 925.48 618.14 912.75 610.73&#10;  Q 901.69 604.30 885.39 598.16"/>
<path stroke="#fdb596" d="&#10;  M 885.39 598.16&#10;  Q 884.18 586.59 879.78 567.99&#10;  Q 872.37 536.70 868.22 524.75&#10;  Q 863.92 512.35 859.88 501.12&#10;  Q 856.35 491.27 852.36 482.59&#10;  C 839.65 454.87 825.11 428.08 807.11 403.38&#10;  Q 797.80 390.60 786.20 375.81&#10;  Q 775.04 361.57 752.36 338.24&#10;  Q 748.13 333.89 741.98 328.67&#10;  Q 736.61 324.10 731.41 319.17&#10;  C 727.24 315.22 722.45 311.67 717.96 307.90&#10;  Q 713.77 304.38 707.87 300.12&#10;  Q 682.67 281.93 662.04 270.51&#10;  Q 640.80 258.74 630.08 254.01&#10;  Q 611.20 245.69 584.46 236.71&#10;  Q 578.72 234.78 573.91 233.63&#10;  C 568.08 232.25 562.29 230.42 556.22 229.35&#10;  Q 552.70 228.73 549.17 227.99&#10;  Q 544.02 226.91 538.52 226.06&#10;  Q 528.04 224.43 516.51 222.78&#10;  Q 506.59 221.36 493.83 220.52&#10;  Q 488.85 220.18 483.41 220.28&#10;  C 482.10 220.30 481.04 219.78 479.76 219.77&#10;  Q 470.12 219.68 460.83 219.75&#10;  C 453.97 219.81 447.00 220.62 440.19 220.71&#10;  C 438.89 220.72 437.75 221.18 436.49 221.23&#10;  Q 426.74 221.68 418.77 222.78&#10;  Q 410.54 223.92 400.97 225.43&#10;  C 394.38 226.47 387.95 228.10 381.34 229.30&#10;  C 372.74 230.86 363.96 233.09 355.41 235.45&#10;  Q 350.49 236.81 344.23 238.97&#10;  Q 338.45 240.98 332.53 242.98&#10;  Q 310.70 250.36 279.64 266.36&#10;  C 275.31 268.59 271.17 271.42 266.78 273.62&#10;  C 260.29 276.89 254.37 281.39 248.10 285.08&#10;  Q 243.49 287.80 239.06 290.86&#10;  Q 200.39 317.54 168.46 351.34&#10;  C 163.34 356.77 158.54 362.40 153.54 368.09&#10;  C 145.36 377.40 137.58 387.52 129.89 397.21&#10;  C 119.22 410.65 110.53 425.46 100.81 441.21&#10;  C 96.91 447.54 93.53 454.28 90.07 460.86&#10;  C 87.59 465.56 85.36 470.52 82.89 475.31&#10;  C 78.24 484.32 74.71 493.78 70.68 503.16&#10;  Q 67.77 509.93 65.77 516.05&#10;  C 63.02 524.49 59.84 532.29 57.47 541.08&#10;  Q 55.86 547.02 54.02 553.26&#10;  C 50.16 566.36 47.56 579.82 44.76 593.67&#10;  Q 42.97 602.51 41.57 613.31&#10;  Q 39.81 626.90 38.26 640.47"/>
<path stroke="#956782" d="&#10;  M 38.26 640.47&#10;  Q 19.91 643.35 5.94 653.19"/>
<path stroke="#93a083" d="&#10;  M 885.39 598.16&#10;  Q 878.05 594.91 873.69 593.83&#10;  Q 870.29 592.98 857.74 590.77&#10;  C 846.75 588.83 835.28 589.29 824.20 589.87&#10;  Q 822.52 589.96 820.91 589.77&#10;  Q 819.17 589.57 817.74 589.43"/>
<path stroke="#99f6b8" d="&#10;  M 817.74 589.43&#10;  Q 815.04 573.75 813.55 569.74&#10;  Q 811.17 563.32 808.96 555.59&#10;  Q 803.71 537.22 796.54 521.15&#10;  C 795.00 517.71 794.13 513.96 792.35 510.73&#10;  C 788.93 504.54 786.75 497.86 783.28 491.70&#10;  Q 780.48 486.72 778.00 482.29&#10;  Q 776.83 480.20 773.10 472.71&#10;  Q 768.21 462.87 760.84 452.70&#10;  C 759.42 450.73 758.62 448.48 757.02 446.70&#10;  C 754.93 444.37 753.72 441.60 751.87 439.10&#10;  Q 744.68 429.40 736.86 419.93&#10;  Q 733.10 415.36 729.69 410.74&#10;  Q 725.05 404.44 718.35 397.61&#10;  Q 715.08 394.28 712.23 391.05&#10;  Q 709.15 387.57 705.76 384.48&#10;  Q 686.67 367.09 672.03 356.18&#10;  Q 648.19 338.42 616.97 322.22&#10;  C 608.51 317.83 598.96 313.97 590.08 310.24&#10;  C 585.57 308.35 580.82 306.96 576.21 304.99&#10;  Q 572.67 303.47 567.06 301.82&#10;  Q 551.65 297.26 537.87 294.44&#10;  Q 514.95 289.74 492.65 287.84&#10;  C 482.21 286.94 471.05 287.25 459.75 287.14&#10;  Q 454.96 287.09 443.49 287.98&#10;  Q 432.40 288.84 424.73 289.99&#10;  Q 422.22 290.37 419.73 290.62&#10;  Q 417.21 290.88 414.83 291.53&#10;  Q 412.92 292.05 410.62 292.31&#10;  Q 408.56 292.55 406.38 292.96&#10;  Q 397.11 294.70 385.23 297.37&#10;  Q 375.61 299.54 367.42 302.15&#10;  Q 358.87 304.87 350.10 308.31&#10;  Q 340.18 312.20 330.06 316.56&#10;  Q 319.34 321.17 306.12 328.41&#10;  Q 304.04 329.55 301.91 330.56&#10;  C 298.37 332.24 295.26 334.68 291.83 336.65&#10;  Q 276.05 345.71 263.73 355.12&#10;  Q 253.38 363.03 243.62 371.15&#10;  Q 238.52 375.40 234.64 379.16&#10;  Q 229.83 383.81 225.03 388.12&#10;  Q 222.44 390.45 220.16 392.91&#10;  C 216.20 397.21 212.01 401.16 208.17 405.56&#10;  Q 203.44 410.97 198.77 416.24&#10;  Q 193.80 421.83 189.58 427.21&#10;  Q 175.19 445.53 163.98 463.71&#10;  Q 160.46 469.42 156.49 476.21&#10;  Q 151.10 485.43 147.58 493.69&#10;  Q 145.46 498.67 143.02 502.85&#10;  Q 140.13 507.78 138.23 512.38&#10;  Q 132.50 526.16 126.72 540.97&#10;  C 125.74 543.49 125.21 546.05 124.20 548.59&#10;  Q 121.80 554.59 120.17 561.10&#10;  C 119.86 562.33 119.03 563.36 118.75 564.48&#10;  Q 115.95 575.52 112.79 586.87&#10;  Q 112.35 588.42 112.05 589.77&#10;  Q 110.49 596.66 109.26 603.99&#10;  C 108.85 606.45 107.92 608.86 107.48 611.45&#10;  Q 105.84 621.00 104.25 631.50&#10;  C 103.55 636.17 103.31 640.82 103.02 645.58"/>
<path stroke="#93a083" d="&#10;  M 103.02 645.58&#10;  Q 95.26 643.08 89.75 642.04&#10;  Q 80.07 640.22 68.33 639.10&#10;  Q 64.04 638.69 59.13 638.95&#10;  C 54.09 639.22 49.33 639.28 44.11 640.05&#10;  Q 41.06 640.51 38.26 640.47"/>
<path stroke="#31a8a4" d="&#10;  M 817.74 589.43&#10;  Q 807.72 590.35 798.32 590.80&#10;  C 797.36 590.85 796.56 591.26 795.62 591.41&#10;  Q 795.10 591.49 794.77 591.07&#10;  Q 793.92 589.95 793.49 588.72&#10;  Q 789.70 577.82 785.78 570.63&#10;  Q 780.82 561.52 776.21 553.31&#10;  Q 774.31 549.93 771.83 546.65&#10;  Q 760.96 532.25 749.31 520.12&#10;  Q 742.90 513.45 734.44 506.74&#10;  Q 722.80 497.50 710.20 489.80&#10;  Q 698.70 482.76 684.16 477.02&#10;  Q 682.27 476.27 680.37 475.39&#10;  Q 678.46 474.50 676.54 473.82"/>
<path stroke="#50b5e8" d="&#10;  M 676.54 473.82&#10;  Q 676.32 472.75 675.85 472.15&#10;  Q 663.79 456.94 650.48 444.41&#10;  Q 646.96 441.10 636.29 431.92&#10;  Q 631.12 427.47 625.51 423.37&#10;  Q 618.88 418.52 613.63 415.34&#10;  Q 605.48 410.39 598.39 405.48&#10;  Q 594.80 403.00 591.14 401.46&#10;  Q 584.80 398.78 578.22 395.43&#10;  C 574.05 393.31 569.69 391.61 565.40 389.70&#10;  Q 560.51 387.53 555.65 385.93&#10;  Q 539.50 380.65 523.95 377.81&#10;  Q 516.80 376.50 508.25 374.96&#10;  C 504.60 374.30 501.06 373.94 497.41 373.54&#10;  C 494.50 373.22 491.65 373.37 488.75 373.07&#10;  Q 485.86 372.77 482.81 372.73&#10;  Q 471.20 372.57 461.08 372.92&#10;  Q 445.93 373.45 428.71 376.90&#10;  Q 424.48 377.75 420.02 378.63&#10;  Q 408.15 380.96 390.95 386.56&#10;  C 380.99 389.80 371.94 394.25 362.64 398.21&#10;  C 352.00 402.75 342.24 408.39 332.73 414.73&#10;  C 325.50 419.55 318.46 423.75 311.39 429.44&#10;  Q 305.58 434.12 299.74 438.69&#10;  C 293.86 443.30 288.21 448.73 282.75 453.94&#10;  C 280.63 455.96 278.98 458.30 276.80 460.22&#10;  C 272.90 463.66 269.71 467.69 265.93 471.40&#10;  Q 262.78 474.49 259.66 478.41&#10;  C 252.32 487.63 245.26 496.16 238.25 506.54&#10;  Q 227.31 522.75 216.64 541.85&#10;  Q 208.96 555.61 200.26 576.45&#10;  C 198.44 580.83 196.28 584.99 194.72 589.51&#10;  Q 191.53 598.73 187.60 609.08&#10;  C 186.54 611.87 185.89 615.11 184.92 617.98&#10;  Q 183.69 621.63 182.89 624.87&#10;  Q 179.56 638.35 176.11 652.32&#10;  Q 175.22 655.92 174.69 659.69&#10;  Q 173.24 669.99 171.41 680.47&#10;  Q 170.82 683.82 170.52 687.04&#10;  Q 170.23 690.17 169.97 693.60"/>
<path stroke="#31a8a4" d="&#10;  M 169.97 693.60&#10;  C 167.44 690.69 165.17 687.59 162.71 685.07&#10;  Q 151.12 673.20 137.25 663.24&#10;  Q 132.69 659.96 128.32 657.81&#10;  Q 123.48 655.43 119.36 652.86&#10;  C 116.20 650.90 112.74 649.60 109.50 647.80&#10;  Q 108.07 647.01 106.36 646.51&#10;  Q 104.65 646.01 103.02 645.58"/>
<path stroke="#4b5fb4" d="&#10;  M 676.54 473.82&#10;  Q 672.14 472.72 667.81 471.40&#10;  Q 663.11 469.96 659.10 469.09&#10;  C 652.55 467.67 645.51 465.61 638.75 464.95&#10;  Q 625.69 463.67 613.20 463.53&#10;  C 607.10 463.47 601.25 464.15 595.19 464.45&#10;  Q 588.42 464.78 582.00 465.94&#10;  Q 566.83 468.68 553.60 473.32&#10;  A 1.84 1.81 -39.5 0 1 552.11 473.19&#10;  Q 538.81 465.68 524.21 462.05&#10;  C 516.37 460.10 508.48 458.00 500.48 456.91&#10;  Q 486.75 455.04 482.42 454.82&#10;  Q 464.67 453.91 443.96 457.85&#10;  Q 438.73 458.85 423.55 462.74&#10;  Q 411.50 465.84 398.04 472.45&#10;  Q 382.60 480.03 364.87 492.01&#10;  Q 350.58 501.67 333.03 518.48&#10;  Q 330.66 520.76 328.28 523.08&#10;  Q 326.08 525.22 323.96 527.64&#10;  Q 316.29 536.36 309.15 544.84&#10;  Q 300.18 555.48 292.30 569.07&#10;  C 289.91 573.20 287.01 576.93 284.73 581.09&#10;  Q 273.07 602.40 270.59 608.09&#10;  Q 259.34 633.90 251.92 661.19&#10;  Q 249.25 671.05 242.10 702.88&#10;  Q 242.00 703.33 241.53 703.33&#10;  L 176.33 703.26&#10;  A 1.13 1.11 74.2 0 1 175.37 702.71&#10;  L 169.97 693.60"/>
</g>
<path fill="#2b526f" d="&#10;  M 949.77 586.35&#10;  Q 949.45 582.85 949.36 579.44&#10;  Q 949.25 575.70 948.58 572.68&#10;  C 946.88 565.08 946.01 557.52 944.08 550.13&#10;  Q 940.95 538.16 937.94 525.44&#10;  C 936.70 520.19 935.01 515.11 933.64 509.92&#10;  C 932.86 506.95 931.50 504.21 930.74 501.21&#10;  C 929.60 496.65 927.70 492.58 926.32 488.18&#10;  Q 925.16 484.50 924.02 481.34&#10;  C 921.54 474.49 919.16 467.25 916.04 460.70&#10;  C 912.26 452.75 909.30 444.79 905.15 436.58&#10;  C 898.76 423.93 892.98 411.94 885.71 400.08&#10;  Q 877.55 386.77 868.72 372.58&#10;  C 866.25 368.62 863.24 365.25 860.67 361.53&#10;  Q 841.35 333.52 817.80 308.40&#10;  Q 812.94 303.21 807.69 297.65&#10;  Q 804.81 294.60 801.71 291.78&#10;  C 796.50 287.07 791.99 282.05 786.66 277.43&#10;  Q 777.94 269.87 768.38 261.63&#10;  C 763.51 257.43 758.33 254.12 753.51 250.15&#10;  C 746.23 244.15 738.36 239.54 730.76 233.80&#10;  C 723.71 228.47 716.10 223.91 708.69 219.13&#10;  C 704.80 216.61 700.39 214.68 696.48 212.36&#10;  Q 676.23 200.32 653.67 190.92&#10;  C 649.81 189.31 646.26 187.19 642.35 185.85&#10;  Q 637.91 184.33 633.73 182.50&#10;  Q 624.64 178.51 613.61 175.32&#10;  Q 599.27 171.17 584.86 166.97&#10;  C 580.80 165.79 576.73 165.24 572.79 164.04&#10;  Q 568.28 162.66 564.00 161.93&#10;  Q 554.99 160.38 546.37 158.82&#10;  C 538.30 157.36 529.67 156.72 521.28 155.46&#10;  Q 515.97 154.65 511.03 154.27&#10;  Q 497.48 153.21 486.50 152.84&#10;  Q 473.91 152.41 453.20 152.93&#10;  C 448.11 153.05 442.81 153.42 437.58 153.58&#10;  Q 431.40 153.77 425.93 154.29&#10;  Q 410.18 155.80 403.51 156.71&#10;  Q 377.70 160.24 352.60 167.07&#10;  Q 347.03 168.59 341.53 169.98&#10;  C 334.75 171.70 327.84 173.22 321.15 175.53&#10;  C 309.86 179.43 298.92 183.67 286.83 188.48&#10;  C 278.57 191.76 270.39 195.33 262.61 199.54&#10;  C 255.72 203.26 248.86 206.11 242.31 209.96&#10;  C 236.95 213.11 232.14 216.03 226.19 219.23&#10;  C 214.38 225.60 203.54 233.91 192.44 241.68&#10;  Q 180.33 250.16 163.60 263.87&#10;  Q 150.67 274.46 140.37 284.87&#10;  C 137.44 287.82 134.08 290.21 131.18 293.18&#10;  Q 125.28 299.23 119.18 305.42&#10;  C 116.58 308.06 114.32 310.99 111.74 313.58&#10;  C 106.57 318.76 101.85 324.25 96.84 329.75&#10;  C 94.69 332.11 93.19 334.82 91.00 337.19&#10;  Q 88.54 339.86 86.40 342.70&#10;  Q 76.74 355.48 67.60 368.36&#10;  Q 65.12 371.84 62.57 376.03&#10;  Q 60.46 379.51 57.71 383.46&#10;  C 54.69 387.81 51.92 392.76 48.75 397.29&#10;  Q 41.05 408.31 35.66 419.62&#10;  Q 31.76 427.79 28.00 435.04&#10;  Q 18.91 452.53 11.28 473.01&#10;  Q 9.72 477.21 8.63 479.87&#10;  Q 7.22 483.32 6.03 486.72&#10;  Q 3.05 495.23 0.00 503.87&#10;  L 0.00 324.25&#10;  C 2.20 320.08 3.53 315.07 5.19 311.38&#10;  C 11.61 297.09 17.84 282.29 24.87 268.65&#10;  Q 30.87 257.00 38.53 243.75&#10;  C 43.91 234.42 49.86 224.88 56.08 215.89&#10;  C 61.71 207.75 67.20 199.68 73.18 192.19&#10;  Q 96.56 162.92 116.61 143.61&#10;  Q 131.71 129.06 140.08 122.02&#10;  Q 144.52 118.29 148.22 114.98&#10;  C 154.12 109.69 160.67 105.25 166.91 100.24&#10;  Q 171.96 96.18 177.36 92.46&#10;  C 184.68 87.40 192.11 82.11 199.71 77.65&#10;  C 204.83 74.65 209.50 71.37 214.75 68.50&#10;  Q 237.75 55.90 246.32 51.79&#10;  Q 263.74 43.44 285.75 34.52&#10;  C 299.51 28.95 313.65 24.82 327.68 20.43&#10;  Q 333.61 18.57 339.24 17.39&#10;  C 344.52 16.28 349.53 14.46 354.86 13.66&#10;  C 361.51 12.66 367.94 10.70 374.55 9.58&#10;  Q 384.56 7.88 394.28 6.48&#10;  C 400.48 5.59 406.72 5.46 412.91 4.56&#10;  Q 429.02 2.22 439.72 1.87&#10;  Q 465.48 1.02 492.49 1.82&#10;  Q 501.48 2.08 509.80 3.24&#10;  C 517.99 4.37 525.74 5.16 533.91 5.99&#10;  C 541.30 6.74 548.63 8.25 555.92 9.34&#10;  C 562.97 10.39 569.81 12.32 576.82 13.49&#10;  Q 581.80 14.31 586.36 15.63&#10;  C 590.66 16.88 595.11 17.48 599.40 18.72&#10;  Q 606.22 20.70 613.10 22.52&#10;  C 614.35 22.85 615.43 23.58 616.63 23.96&#10;  Q 627.62 27.47 639.46 31.39&#10;  Q 646.82 33.82 654.12 37.23&#10;  Q 660.80 40.36 667.45 43.03&#10;  C 673.37 45.41 679.54 47.80 685.13 50.68&#10;  Q 693.87 55.19 701.97 59.28&#10;  C 714.13 65.40 725.23 72.37 737.02 79.35&#10;  C 742.44 82.56 747.27 86.39 752.50 89.71&#10;  Q 756.18 92.04 759.65 94.68&#10;  C 762.71 97.00 766.03 99.09 768.98 101.62&#10;  C 773.91 105.84 779.34 109.39 784.43 113.66&#10;  Q 812.33 137.01 836.51 162.90&#10;  C 838.65 165.19 840.36 167.81 842.48 170.25&#10;  Q 867.53 199.09 888.76 232.97&#10;  Q 893.81 241.02 897.25 247.52&#10;  C 900.12 252.93 903.37 257.70 906.09 262.87&#10;  C 914.19 278.25 921.93 294.51 928.00 311.05&#10;  Q 929.87 316.14 931.70 320.83&#10;  C 934.78 328.70 937.35 336.83 939.98 344.79&#10;  Q 941.22 348.55 942.21 352.27&#10;  C 943.54 357.25 945.65 361.94 946.34 367.00&#10;  C 947.10 372.56 949.26 377.54 950.09 383.00&#10;  C 951.17 390.11 953.35 397.00 954.17 404.32&#10;  Q 954.94 411.22 956.14 417.63&#10;  Q 957.44 424.58 957.97 430.89&#10;  Q 959.06 443.93 959.94 458.39&#10;  Q 960.60 469.05 960.72 478.37&#10;  Q 960.77 481.57 961.15 484.33&#10;  C 961.53 487.13 960.51 489.58 960.65 492.37&#10;  Q 960.85 496.33 960.50 500.02&#10;  C 960.15 503.63 960.43 507.28 959.92 510.87&#10;  Q 959.62 512.96 959.52 515.18&#10;  Q 958.58 536.29 955.26 556.34&#10;  Q 955.05 557.64 954.64 562.66&#10;  Q 954.39 565.67 953.70 568.98&#10;  Q 951.06 581.60 949.77 586.35&#10;  Z"/>
<path fill="#fe7b95" d="&#10;  M 949.77 586.35&#10;  Q 947.73 595.96 941.07 619.25&#10;  Q 938.47 628.36 937.39 630.77&#10;  Q 925.48 618.14 912.75 610.73&#10;  Q 901.69 604.30 885.39 598.16&#10;  Q 884.18 586.59 879.78 567.99&#10;  Q 872.37 536.70 868.22 524.75&#10;  Q 863.92 512.35 859.88 501.12&#10;  Q 856.35 491.27 852.36 482.59&#10;  C 839.65 454.87 825.11 428.08 807.11 403.38&#10;  Q 797.80 390.60 786.20 375.81&#10;  Q 775.04 361.57 752.36 338.24&#10;  Q 748.13 333.89 741.98 328.67&#10;  Q 736.61 324.10 731.41 319.17&#10;  C 727.24 315.22 722.45 311.67 717.96 307.90&#10;  Q 713.77 304.38 707.87 300.12&#10;  Q 682.67 281.93 662.04 270.51&#10;  Q 640.80 258.74 630.08 254.01&#10;  Q 611.20 245.69 584.46 236.71&#10;  Q 578.72 234.78 573.91 233.63&#10;  C 568.08 232.25 562.29 230.42 556.22 229.35&#10;  Q 552.70 228.73 549.17 227.99&#10;  Q 544.02 226.91 538.52 226.06&#10;  Q 528.04 224.43 516.51 222.78&#10;  Q 506.59 221.36 493.83 220.52&#10;  Q 488.85 220.18 483.41 220.28&#10;  C 482.10 220.30 481.04 219.78 479.76 219.77&#10;  Q 470.12 219.68 460.83 219.75&#10;  C 453.97 219.81 447.00 220.62 440.19 220.71&#10;  C 438.89 220.72 437.75 221.18 436.49 221.23&#10;  Q 426.74 221.68 418.77 222.78&#10;  Q 410.54 223.92 400.97 225.43&#10;  C 394.38 226.47 387.95 228.10 381.34 229.30&#10;  C 372.74 230.86 363.96 233.09 355.41 235.45&#10;  Q 350.49 236.81 344.23 238.97&#10;  Q 338.45 240.98 332.53 242.98&#10;  Q 310.70 250.36 279.64 266.36&#10;  C 275.31 268.59 271.17 271.42 266.78 273.62&#10;  C 260.29 276.89 254.37 281.39 248.10 285.08&#10;  Q 243.49 287.80 239.06 290.86&#10;  Q 200.39 317.54 168.46 351.34&#10;  C 163.34 356.77 158.54 362.40 153.54 368.09&#10;  C 145.36 377.40 137.58 387.52 129.89 397.21&#10;  C 119.22 410.65 110.53 425.46 100.81 441.21&#10;  C 96.91 447.54 93.53 454.28 90.07 460.86&#10;  C 87.59 465.56 85.36 470.52 82.89 475.31&#10;  C 78.24 484.32 74.71 493.78 70.68 503.16&#10;  Q 67.77 509.93 65.77 516.05&#10;  C 63.02 524.49 59.84 532.29 57.47 541.08&#10;  Q 55.86 547.02 54.02 553.26&#10;  C 50.16 566.36 47.56 579.82 44.76 593.67&#10;  Q 42.97 602.51 41.57 613.31&#10;  Q 39.81 626.90 38.26 640.47&#10;  Q 19.91 643.35 5.94 653.19&#10;  L 1.08 656.26&#10;  Q 0.63 656.55 0.37 656.08&#10;  Q 0.09 655.59 0.00 654.63&#10;  L 0.00 503.87&#10;  Q 3.05 495.23 6.03 486.72&#10;  Q 7.22 483.32 8.63 479.87&#10;  Q 9.72 477.21 11.28 473.01&#10;  Q 18.91 452.53 28.00 435.04&#10;  Q 31.76 427.79 35.66 419.62&#10;  Q 41.05 408.31 48.75 397.29&#10;  C 51.92 392.76 54.69 387.81 57.71 383.46&#10;  Q 60.46 379.51 62.57 376.03&#10;  Q 65.12 371.84 67.60 368.36&#10;  Q 76.74 355.48 86.40 342.70&#10;  Q 88.54 339.86 91.00 337.19&#10;  C 93.19 334.82 94.69 332.11 96.84 329.75&#10;  C 101.85 324.25 106.57 318.76 111.74 313.58&#10;  C 114.32 310.99 116.58 308.06 119.18 305.42&#10;  Q 125.28 299.23 131.18 293.18&#10;  C 134.08 290.21 137.44 287.82 140.37 284.87&#10;  Q 150.67 274.46 163.60 263.87&#10;  Q 180.33 250.16 192.44 241.68&#10;  C 203.54 233.91 214.38 225.60 226.19 219.23&#10;  C 232.14 216.03 236.95 213.11 242.31 209.96&#10;  C 248.86 206.11 255.72 203.26 262.61 199.54&#10;  C 270.39 195.33 278.57 191.76 286.83 188.48&#10;  C 298.92 183.67 309.86 179.43 321.15 175.53&#10;  C 327.84 173.22 334.75 171.70 341.53 169.98&#10;  Q 347.03 168.59 352.60 167.07&#10;  Q 377.70 160.24 403.51 156.71&#10;  Q 410.18 155.80 425.93 154.29&#10;  Q 431.40 153.77 437.58 153.58&#10;  C 442.81 153.42 448.11 153.05 453.20 152.93&#10;  Q 473.91 152.41 486.50 152.84&#10;  Q 497.48 153.21 511.03 154.27&#10;  Q 515.97 154.65 521.28 155.46&#10;  C 529.67 156.72 538.30 157.36 546.37 158.82&#10;  Q 554.99 160.38 564.00 161.93&#10;  Q 568.28 162.66 572.79 164.04&#10;  C 576.73 165.24 580.80 165.79 584.86 166.97&#10;  Q 599.27 171.17 613.61 175.32&#10;  Q 624.64 178.51 633.73 182.50&#10;  Q 637.91 184.33 642.35 185.85&#10;  C 646.26 187.19 649.81 189.31 653.67 190.92&#10;  Q 676.23 200.32 696.48 212.36&#10;  C 700.39 214.68 704.80 216.61 708.69 219.13&#10;  C 716.10 223.91 723.71 228.47 730.76 233.80&#10;  C 738.36 239.54 746.23 244.15 753.51 250.15&#10;  C 758.33 254.12 763.51 257.43 768.38 261.63&#10;  Q 777.94 269.87 786.66 277.43&#10;  C 791.99 282.05 796.50 287.07 801.71 291.78&#10;  Q 804.81 294.60 807.69 297.65&#10;  Q 812.94 303.21 817.80 308.40&#10;  Q 841.35 333.52 860.67 361.53&#10;  C 863.24 365.25 866.25 368.62 868.72 372.58&#10;  Q 877.55 386.77 885.71 400.08&#10;  C 892.98 411.94 898.76 423.93 905.15 436.58&#10;  C 909.30 444.79 912.26 452.75 916.04 460.70&#10;  C 919.16 467.25 921.54 474.49 924.02 481.34&#10;  Q 925.16 484.50 926.32 488.18&#10;  C 927.70 492.58 929.60 496.65 930.74 501.21&#10;  C 931.50 504.21 932.86 506.95 933.64 509.92&#10;  C 935.01 515.11 936.70 520.19 937.94 525.44&#10;  Q 940.95 538.16 944.08 550.13&#10;  C 946.01 557.52 946.88 565.08 948.58 572.68&#10;  Q 949.25 575.70 949.36 579.44&#10;  Q 949.45 582.85 949.77 586.35&#10;  Z"/>
<path fill="#fbee97" d="&#10;  M 885.39 598.16&#10;  Q 878.05 594.91 873.69 593.83&#10;  Q 870.29 592.98 857.74 590.77&#10;  C 846.75 588.83 835.28 589.29 824.20 589.87&#10;  Q 822.52 589.96 820.91 589.77&#10;  Q 819.17 589.57 817.74 589.43&#10;  Q 815.04 573.75 813.55 569.74&#10;  Q 811.17 563.32 808.96 555.59&#10;  Q 803.71 537.22 796.54 521.15&#10;  C 795.00 517.71 794.13 513.96 792.35 510.73&#10;  C 788.93 504.54 786.75 497.86 783.28 491.70&#10;  Q 780.48 486.72 778.00 482.29&#10;  Q 776.83 480.20 773.10 472.71&#10;  Q 768.21 462.87 760.84 452.70&#10;  C 759.42 450.73 758.62 448.48 757.02 446.70&#10;  C 754.93 444.37 753.72 441.60 751.87 439.10&#10;  Q 744.68 429.40 736.86 419.93&#10;  Q 733.10 415.36 729.69 410.74&#10;  Q 725.05 404.44 718.35 397.61&#10;  Q 715.08 394.28 712.23 391.05&#10;  Q 709.15 387.57 705.76 384.48&#10;  Q 686.67 367.09 672.03 356.18&#10;  Q 648.19 338.42 616.97 322.22&#10;  C 608.51 317.83 598.96 313.97 590.08 310.24&#10;  C 585.57 308.35 580.82 306.96 576.21 304.99&#10;  Q 572.67 303.47 567.06 301.82&#10;  Q 551.65 297.26 537.87 294.44&#10;  Q 514.95 289.74 492.65 287.84&#10;  C 482.21 286.94 471.05 287.25 459.75 287.14&#10;  Q 454.96 287.09 443.49 287.98&#10;  Q 432.40 288.84 424.73 289.99&#10;  Q 422.22 290.37 419.73 290.62&#10;  Q 417.21 290.88 414.83 291.53&#10;  Q 412.92 292.05 410.62 292.31&#10;  Q 408.56 292.55 406.38 292.96&#10;  Q 397.11 294.70 385.23 297.37&#10;  Q 375.61 299.54 367.42 302.15&#10;  Q 358.87 304.87 350.10 308.31&#10;  Q 340.18 312.20 330.06 316.56&#10;  Q 319.34 321.17 306.12 328.41&#10;  Q 304.04 329.55 301.91 330.56&#10;  C 298.37 332.24 295.26 334.68 291.83 336.65&#10;  Q 276.05 345.71 263.73 355.12&#10;  Q 253.38 363.03 243.62 371.15&#10;  Q 238.52 375.40 234.64 379.16&#10;  Q 229.83 383.81 225.03 388.12&#10;  Q 222.44 390.45 220.16 392.91&#10;  C 216.20 397.21 212.01 401.16 208.17 405.56&#10;  Q 203.44 410.97 198.77 416.24&#10;  Q 193.80 421.83 189.58 427.21&#10;  Q 175.19 445.53 163.98 463.71&#10;  Q 160.46 469.42 156.49 476.21&#10;  Q 151.10 485.43 147.58 493.69&#10;  Q 145.46 498.67 143.02 502.85&#10;  Q 140.13 507.78 138.23 512.38&#10;  Q 132.50 526.16 126.72 540.97&#10;  C 125.74 543.49 125.21 546.05 124.20 548.59&#10;  Q 121.80 554.59 120.17 561.10&#10;  C 119.86 562.33 119.03 563.36 118.75 564.48&#10;  Q 115.95 575.52 112.79 586.87&#10;  Q 112.35 588.42 112.05 589.77&#10;  Q 110.49 596.66 109.26 603.99&#10;  C 108.85 606.45 107.92 608.86 107.48 611.45&#10;  Q 105.84 621.00 104.25 631.50&#10;  C 103.55 636.17 103.31 640.82 103.02 645.58&#10;  Q 95.26 643.08 89.75 642.04&#10;  Q 80.07 640.22 68.33 639.10&#10;  Q 64.04 638.69 59.13 638.95&#10;  C 54.09 639.22 49.33 639.28 44.11 640.05&#10;  Q 41.06 640.51 38.26 640.47&#10;  Q 39.81 626.90 41.57 613.31&#10;  Q 42.97 602.51 44.76 593.67&#10;  C 47.56 579.82 50.16 566.36 54.02 553.26&#10;  Q 55.86 547.02 57.47 541.08&#10;  C 59.84 532.29 63.02 524.49 65.77 516.05&#10;  Q 67.77 509.93 70.68 503.16&#10;  C 74.71 493.78 78.24 484.32 82.89 475.31&#10;  C 85.36 470.52 87.59 465.56 90.07 460.86&#10;  C 93.53 454.28 96.91 447.54 100.81 441.21&#10;  C 110.53 425.46 119.22 410.65 129.89 397.21&#10;  C 137.58 387.52 145.36 377.40 153.54 368.09&#10;  C 158.54 362.40 163.34 356.77 168.46 351.34&#10;  Q 200.39 317.54 239.06 290.86&#10;  Q 243.49 287.80 248.10 285.08&#10;  C 254.37 281.39 260.29 276.89 266.78 273.62&#10;  C 271.17 271.42 275.31 268.59 279.64 266.36&#10;  Q 310.70 250.36 332.53 242.98&#10;  Q 338.45 240.98 344.23 238.97&#10;  Q 350.49 236.81 355.41 235.45&#10;  C 363.96 233.09 372.74 230.86 381.34 229.30&#10;  C 387.95 228.10 394.38 226.47 400.97 225.43&#10;  Q 410.54 223.92 418.77 222.78&#10;  Q 426.74 221.68 436.49 221.23&#10;  C 437.75 221.18 438.89 220.72 440.19 220.71&#10;  C 447.00 220.62 453.97 219.81 460.83 219.75&#10;  Q 470.12 219.68 479.76 219.77&#10;  C 481.04 219.78 482.10 220.30 483.41 220.28&#10;  Q 488.85 220.18 493.83 220.52&#10;  Q 506.59 221.36 516.51 222.78&#10;  Q 528.04 224.43 538.52 226.06&#10;  Q 544.02 226.91 549.17 227.99&#10;  Q 552.70 228.73 556.22 229.35&#10;  C 562.29 230.42 568.08 232.25 573.91 233.63&#10;  Q 578.72 234.78 584.46 236.71&#10;  Q 611.20 245.69 630.08 254.01&#10;  Q 640.80 258.74 662.04 270.51&#10;  Q 682.67 281.93 707.87 300.12&#10;  Q 713.77 304.38 717.96 307.90&#10;  C 722.45 311.67 727.24 315.22 731.41 319.17&#10;  Q 736.61 324.10 741.98 328.67&#10;  Q 748.13 333.89 752.36 338.24&#10;  Q 775.04 361.57 786.20 375.81&#10;  Q 797.80 390.60 807.11 403.38&#10;  C 825.11 428.08 839.65 454.87 852.36 482.59&#10;  Q 856.35 491.27 859.88 501.12&#10;  Q 863.92 512.35 868.22 524.75&#10;  Q 872.37 536.70 879.78 567.99&#10;  Q 884.18 586.59 885.39 598.16&#10;  Z"/>
<path fill="#36fed8" d="&#10;  M 817.74 589.43&#10;  Q 807.72 590.35 798.32 590.80&#10;  C 797.36 590.85 796.56 591.26 795.62 591.41&#10;  Q 795.10 591.49 794.77 591.07&#10;  Q 793.92 589.95 793.49 588.72&#10;  Q 789.70 577.82 785.78 570.63&#10;  Q 780.82 561.52 776.21 553.31&#10;  Q 774.31 549.93 771.83 546.65&#10;  Q 760.96 532.25 749.31 520.12&#10;  Q 742.90 513.45 734.44 506.74&#10;  Q 722.80 497.50 710.20 489.80&#10;  Q 698.70 482.76 684.16 477.02&#10;  Q 682.27 476.27 680.37 475.39&#10;  Q 678.46 474.50 676.54 473.82&#10;  Q 676.32 472.75 675.85 472.15&#10;  Q 663.79 456.94 650.48 444.41&#10;  Q 646.96 441.10 636.29 431.92&#10;  Q 631.12 427.47 625.51 423.37&#10;  Q 618.88 418.52 613.63 415.34&#10;  Q 605.48 410.39 598.39 405.48&#10;  Q 594.80 403.00 591.14 401.46&#10;  Q 584.80 398.78 578.22 395.43&#10;  C 574.05 393.31 569.69 391.61 565.40 389.70&#10;  Q 560.51 387.53 555.65 385.93&#10;  Q 539.50 380.65 523.95 377.81&#10;  Q 516.80 376.50 508.25 374.96&#10;  C 504.60 374.30 501.06 373.94 497.41 373.54&#10;  C 494.50 373.22 491.65 373.37 488.75 373.07&#10;  Q 485.86 372.77 482.81 372.73&#10;  Q 471.20 372.57 461.08 372.92&#10;  Q 445.93 373.45 428.71 376.90&#10;  Q 424.48 377.75 420.02 378.63&#10;  Q 408.15 380.96 390.95 386.56&#10;  C 380.99 389.80 371.94 394.25 362.64 398.21&#10;  C 352.00 402.75 342.24 408.39 332.73 414.73&#10;  C 325.50 419.55 318.46 423.75 311.39 429.44&#10;  Q 305.58 434.12 299.74 438.69&#10;  C 293.86 443.30 288.21 448.73 282.75 453.94&#10;  C 280.63 455.96 278.98 458.30 276.80 460.22&#10;  C 272.90 463.66 269.71 467.69 265.93 471.40&#10;  Q 262.78 474.49 259.66 478.41&#10;  C 252.32 487.63 245.26 496.16 238.25 506.54&#10;  Q 227.31 522.75 216.64 541.85&#10;  Q 208.96 555.61 200.26 576.45&#10;  C 198.44 580.83 196.28 584.99 194.72 589.51&#10;  Q 191.53 598.73 187.60 609.08&#10;  C 186.54 611.87 185.89 615.11 184.92 617.98&#10;  Q 183.69 621.63 182.89 624.87&#10;  Q 179.56 638.35 176.11 652.32&#10;  Q 175.22 655.92 174.69 659.69&#10;  Q 173.24 669.99 171.41 680.47&#10;  Q 170.82 683.82 170.52 687.04&#10;  Q 170.23 690.17 169.97 693.60&#10;  C 167.44 690.69 165.17 687.59 162.71 685.07&#10;  Q 151.12 673.20 137.25 663.24&#10;  Q 132.69 659.96 128.32 657.81&#10;  Q 123.48 655.43 119.36 652.86&#10;  C 116.20 650.90 112.74 649.60 109.50 647.80&#10;  Q 108.07 647.01 106.36 646.51&#10;  Q 104.65 646.01 103.02 645.58&#10;  C 103.31 640.82 103.55 636.17 104.25 631.50&#10;  Q 105.84 621.00 107.48 611.45&#10;  C 107.92 608.86 108.85 606.45 109.26 603.99&#10;  Q 110.49 596.66 112.05 589.77&#10;  Q 112.35 588.42 112.79 586.87&#10;  Q 115.95 575.52 118.75 564.48&#10;  C 119.03 563.36 119.86 562.33 120.17 561.10&#10;  Q 121.80 554.59 124.20 548.59&#10;  C 125.21 546.05 125.74 543.49 126.72 540.97&#10;  Q 132.50 526.16 138.23 512.38&#10;  Q 140.13 507.78 143.02 502.85&#10;  Q 145.46 498.67 147.58 493.69&#10;  Q 151.10 485.43 156.49 476.21&#10;  Q 160.46 469.42 163.98 463.71&#10;  Q 175.19 445.53 189.58 427.21&#10;  Q 193.80 421.83 198.77 416.24&#10;  Q 203.44 410.97 208.17 405.56&#10;  C 212.01 401.16 216.20 397.21 220.16 392.91&#10;  Q 222.44 390.45 225.03 388.12&#10;  Q 229.83 383.81 234.64 379.16&#10;  Q 238.52 375.40 243.62 371.15&#10;  Q 253.38 363.03 263.73 355.12&#10;  Q 276.05 345.71 291.83 336.65&#10;  C 295.26 334.68 298.37 332.24 301.91 330.56&#10;  Q 304.04 329.55 306.12 328.41&#10;  Q 319.34 321.17 330.06 316.56&#10;  Q 340.18 312.20 350.10 308.31&#10;  Q 358.87 304.87 367.42 302.15&#10;  Q 375.61 299.54 385.23 297.37&#10;  Q 397.11 294.70 406.38 292.96&#10;  Q 408.56 292.55 410.62 292.31&#10;  Q 412.92 292.05 414.83 291.53&#10;  Q 417.21 290.88 419.73 290.62&#10;  Q 422.22 290.37 424.73 289.99&#10;  Q 432.40 288.84 443.49 287.98&#10;  Q 454.96 287.09 459.75 287.14&#10;  C 471.05 287.25 482.21 286.94 492.65 287.84&#10;  Q 514.95 289.74 537.87 294.44&#10;  Q 551.65 297.26 567.06 301.82&#10;  Q 572.67 303.47 576.21 304.99&#10;  C 580.82 306.96 585.57 308.35 590.08 310.24&#10;  C 598.96 313.97 608.51 317.83 616.97 322.22&#10;  Q 648.19 338.42 672.03 356.18&#10;  Q 686.67 367.09 705.76 384.48&#10;  Q 709.15 387.57 712.23 391.05&#10;  Q 715.08 394.28 718.35 397.61&#10;  Q 725.05 404.44 729.69 410.74&#10;  Q 733.10 415.36 736.86 419.93&#10;  Q 744.68 429.40 751.87 439.10&#10;  C 753.72 441.60 754.93 444.37 757.02 446.70&#10;  C 758.62 448.48 759.42 450.73 760.84 452.70&#10;  Q 768.21 462.87 773.10 472.71&#10;  Q 776.83 480.20 778.00 482.29&#10;  Q 780.48 486.72 783.28 491.70&#10;  C 786.75 497.86 788.93 504.54 792.35 510.73&#10;  C 794.13 513.96 795.00 517.71 796.54 521.15&#10;  Q 803.71 537.22 808.96 555.59&#10;  Q 811.17 563.32 813.55 569.74&#10;  Q 815.04 573.75 817.74 589.43&#10;  Z"/>
<path fill="#6a6bf8" d="&#10;  M 676.54 473.82&#10;  Q 672.14 472.72 667.81 471.40&#10;  Q 663.11 469.96 659.10 469.09&#10;  C 652.55 467.67 645.51 465.61 638.75 464.95&#10;  Q 625.69 463.67 613.20 463.53&#10;  C 607.10 463.47 601.25 464.15 595.19 464.45&#10;  Q 588.42 464.78 582.00 465.94&#10;  Q 566.83 468.68 553.60 473.32&#10;  A 1.84 1.81 -39.5 0 1 552.11 473.19&#10;  Q 538.81 465.68 524.21 462.05&#10;  C 516.37 460.10 508.48 458.00 500.48 456.91&#10;  Q 486.75 455.04 482.42 454.82&#10;  Q 464.67 453.91 443.96 457.85&#10;  Q 438.73 458.85 423.55 462.74&#10;  Q 411.50 465.84 398.04 472.45&#10;  Q 382.60 480.03 364.87 492.01&#10;  Q 350.58 501.67 333.03 518.48&#10;  Q 330.66 520.76 328.28 523.08&#10;  Q 326.08 525.22 323.96 527.64&#10;  Q 316.29 536.36 309.15 544.84&#10;  Q 300.18 555.48 292.30 569.07&#10;  C 289.91 573.20 287.01 576.93 284.73 581.09&#10;  Q 273.07 602.40 270.59 608.09&#10;  Q 259.34 633.90 251.92 661.19&#10;  Q 249.25 671.05 242.10 702.88&#10;  Q 242.00 703.33 241.53 703.33&#10;  L 176.33 703.26&#10;  A 1.13 1.11 74.2 0 1 175.37 702.71&#10;  L 169.97 693.60&#10;  Q 170.23 690.17 170.52 687.04&#10;  Q 170.82 683.82 171.41 680.47&#10;  Q 173.24 669.99 174.69 659.69&#10;  Q 175.22 655.92 176.11 652.32&#10;  Q 179.56 638.35 182.89 624.87&#10;  Q 183.69 621.63 184.92 617.98&#10;  C 185.89 615.11 186.54 611.87 187.60 609.08&#10;  Q 191.53 598.73 194.72 589.51&#10;  C 196.28 584.99 198.44 580.83 200.26 576.45&#10;  Q 208.96 555.61 216.64 541.85&#10;  Q 227.31 522.75 238.25 506.54&#10;  C 245.26 496.16 252.32 487.63 259.66 478.41&#10;  Q 262.78 474.49 265.93 471.40&#10;  C 269.71 467.69 272.90 463.66 276.80 460.22&#10;  C 278.98 458.30 280.63 455.96 282.75 453.94&#10;  C 288.21 448.73 293.86 443.30 299.74 438.69&#10;  Q 305.58 434.12 311.39 429.44&#10;  C 318.46 423.75 325.50 419.55 332.73 414.73&#10;  C 342.24 408.39 352.00 402.75 362.64 398.21&#10;  C 371.94 394.25 380.99 389.80 390.95 386.56&#10;  Q 408.15 380.96 420.02 378.63&#10;  Q 424.48 377.75 428.71 376.90&#10;  Q 445.93 373.45 461.08 372.92&#10;  Q 471.20 372.57 482.81 372.73&#10;  Q 485.86 372.77 488.75 373.07&#10;  C 491.65 373.37 494.50 373.22 497.41 373.54&#10;  C 501.06 373.94 504.60 374.30 508.25 374.96&#10;  Q 516.80 376.50 523.95 377.81&#10;  Q 539.50 380.65 555.65 385.93&#10;  Q 560.51 387.53 565.40 389.70&#10;  C 569.69 391.61 574.05 393.31 578.22 395.43&#10;  Q 584.80 398.78 591.14 401.46&#10;  Q 594.80 403.00 598.39 405.48&#10;  Q 605.48 410.39 613.63 415.34&#10;  Q 618.88 418.52 625.51 423.37&#10;  Q 631.12 427.47 636.29 431.92&#10;  Q 646.96 441.10 650.48 444.41&#10;  Q 663.79 456.94 675.85 472.15&#10;  Q 676.32 472.75 676.54 473.82&#10;  Z"/>
<path fill="#2b526f" d="&#10;  M 676.54 473.82&#10;  Q 678.46 474.50 680.37 475.39&#10;  Q 682.27 476.27 684.16 477.02&#10;  Q 698.70 482.76 710.20 489.80&#10;  Q 722.80 497.50 734.44 506.74&#10;  Q 742.90 513.45 749.31 520.12&#10;  Q 760.96 532.25 771.83 546.65&#10;  Q 774.31 549.93 776.21 553.31&#10;  Q 780.82 561.52 785.78 570.63&#10;  Q 789.70 577.82 793.49 588.72&#10;  Q 793.92 589.95 794.77 591.07&#10;  Q 795.10 591.49 795.62 591.41&#10;  C 796.56 591.26 797.36 590.85 798.32 590.80&#10;  Q 807.72 590.35 817.74 589.43&#10;  Q 819.17 589.57 820.91 589.77&#10;  Q 822.52 589.96 824.20 589.87&#10;  C 835.28 589.29 846.75 588.83 857.74 590.77&#10;  Q 870.29 592.98 873.69 593.83&#10;  Q 878.05 594.91 885.39 598.16&#10;  Q 901.69 604.30 912.75 610.73&#10;  Q 925.48 618.14 937.39 630.77&#10;  Q 933.00 644.94 927.27 658.69&#10;  C 926.11 661.47 924.82 665.70 923.08 668.92&#10;  A 1.11 1.10 -54.6 0 1 921.36 669.22&#10;  C 915.04 663.44 908.68 657.45 901.85 652.47&#10;  Q 896.64 648.67 890.92 645.79&#10;  Q 886.08 643.35 881.28 641.05&#10;  Q 876.31 638.66 871.45 637.09&#10;  Q 865.27 635.10 860.38 634.08&#10;  Q 854.25 632.81 847.14 632.21&#10;  Q 840.74 631.67 833.37 631.80&#10;  C 826.46 631.93 819.48 632.07 812.55 631.83&#10;  Q 804.31 631.54 796.72 631.85&#10;  Q 785.95 632.28 780.73 631.18&#10;  C 769.51 628.80 760.42 622.67 756.58 611.27&#10;  Q 753.60 602.46 749.95 593.86&#10;  Q 744.34 580.65 734.33 567.32&#10;  Q 722.89 552.11 709.20 540.52&#10;  Q 693.97 527.64 674.08 517.66&#10;  C 667.27 514.25 659.71 511.38 652.32 509.60&#10;  C 645.43 507.94 638.62 505.95 631.53 505.44&#10;  C 626.27 505.05 621.09 504.27 615.81 504.18&#10;  C 602.88 503.96 589.73 504.74 577.10 507.62&#10;  Q 570.81 509.06 564.68 510.65&#10;  Q 558.35 512.30 548.48 516.55&#10;  Q 542.69 519.05 537.95 522.06&#10;  Q 534.65 524.15 531.02 526.02&#10;  Q 527.73 527.72 524.20 530.23&#10;  Q 513.84 537.61 504.37 546.11&#10;  C 499.40 550.57 494.93 555.23 490.91 560.66&#10;  Q 487.51 565.25 484.12 569.89&#10;  Q 471.76 586.82 465.65 607.53&#10;  C 464.34 611.98 460.92 619.69 456.86 622.89&#10;  C 451.29 627.27 445.08 630.52 438.29 631.43&#10;  Q 431.05 632.40 422.26 632.04&#10;  C 410.53 631.56 399.02 631.65 387.79 631.60&#10;  C 385.12 631.59 382.56 632.30 379.93 632.23&#10;  Q 378.09 632.19 376.08 632.49&#10;  Q 359.62 634.93 347.15 640.53&#10;  C 338.48 644.41 329.20 649.38 321.59 654.92&#10;  Q 311.44 662.30 303.70 670.34&#10;  Q 297.15 677.14 289.94 687.45&#10;  Q 287.03 691.61 284.75 695.89&#10;  C 282.61 699.91 280.36 703.72 278.64 708.06&#10;  Q 271.92 724.94 268.78 742.97&#10;  A 0.58 0.57 4.7 0 1 268.21 743.45&#10;  C 259.43 743.54 251.10 743.96 242.27 744.00&#10;  Q 197.05 744.21 152.55 744.06&#10;  A 3.53 3.53 0.0 0 1 149.36 742.01&#10;  Q 148.20 739.48 147.24 736.70&#10;  C 145.56 731.81 142.34 727.59 139.41 723.37&#10;  C 137.13 720.09 135.45 716.49 132.66 713.63&#10;  C 128.69 709.56 124.79 705.29 120.41 701.67&#10;  Q 107.57 691.06 95.37 686.32&#10;  Q 89.06 683.86 81.71 682.18&#10;  Q 75.01 680.64 67.26 680.33&#10;  Q 58.21 679.96 50.34 680.41&#10;  Q 47.41 680.58 40.80 681.53&#10;  C 33.55 682.58 27.09 685.14 20.28 687.43&#10;  A 0.51 0.51 0.0 0 1 19.65 687.17&#10;  Q 15.87 679.10 12.69 670.61&#10;  Q 12.67 670.54 10.37 663.48&#10;  Q 8.73 658.42 5.94 653.19&#10;  Q 19.91 643.35 38.26 640.47&#10;  Q 41.06 640.51 44.11 640.05&#10;  C 49.33 639.28 54.09 639.22 59.13 638.95&#10;  Q 64.04 638.69 68.33 639.10&#10;  Q 80.07 640.22 89.75 642.04&#10;  Q 95.26 643.08 103.02 645.58&#10;  Q 104.65 646.01 106.36 646.51&#10;  Q 108.07 647.01 109.50 647.80&#10;  C 112.74 649.60 116.20 650.90 119.36 652.86&#10;  Q 123.48 655.43 128.32 657.81&#10;  Q 132.69 659.96 137.25 663.24&#10;  Q 151.12 673.20 162.71 685.07&#10;  C 165.17 687.59 167.44 690.69 169.97 693.60&#10;  L 175.37 702.71&#10;  A 1.13 1.11 74.2 0 0 176.33 703.26&#10;  L 241.53 703.33&#10;  Q 242.00 703.33 242.10 702.88&#10;  Q 249.25 671.05 251.92 661.19&#10;  Q 259.34 633.90 270.59 608.09&#10;  Q 273.07 602.40 284.73 581.09&#10;  C 287.01 576.93 289.91 573.20 292.30 569.07&#10;  Q 300.18 555.48 309.15 544.84&#10;  Q 316.29 536.36 323.96 527.64&#10;  Q 326.08 525.22 328.28 523.08&#10;  Q 330.66 520.76 333.03 518.48&#10;  Q 350.58 501.67 364.87 492.01&#10;  Q 382.60 480.03 398.04 472.45&#10;  Q 411.50 465.84 423.55 462.74&#10;  Q 438.73 458.85 443.96 457.85&#10;  Q 464.67 453.91 482.42 454.82&#10;  Q 486.75 455.04 500.48 456.91&#10;  C 508.48 458.00 516.37 460.10 524.21 462.05&#10;  Q 538.81 465.68 552.11 473.19&#10;  A 1.84 1.81 -39.5 0 0 553.60 473.32&#10;  Q 566.83 468.68 582.00 465.94&#10;  Q 588.42 464.78 595.19 464.45&#10;  C 601.25 464.15 607.10 463.47 613.20 463.53&#10;  Q 625.69 463.67 638.75 464.95&#10;  C 645.51 465.61 652.55 467.67 659.10 469.09&#10;  Q 663.11 469.96 667.81 471.40&#10;  Q 672.14 472.72 676.54 473.82&#10;  Z"/>
<path fill="#2b526f" d="&#10;  M 560.63 967.00&#10;  L 372.47 967.00&#10;  Q 352.19 963.59 340.50 960.53&#10;  Q 334.19 958.88 327.88 957.23&#10;  Q 322.96 955.94 316.81 953.64&#10;  Q 312.20 951.91 305.86 949.95&#10;  Q 299.65 948.03 292.78 945.79&#10;  Q 286.54 943.75 281.33 941.42&#10;  Q 273.35 937.86 263.72 933.77&#10;  C 248.39 927.25 233.64 919.40 218.55 911.24&#10;  Q 211.30 907.31 205.61 903.39&#10;  C 200.05 899.57 193.77 896.70 188.05 892.74&#10;  Q 174.37 883.26 160.24 872.42&#10;  C 154.98 868.39 150.12 863.79 144.85 859.62&#10;  Q 141.83 857.24 138.86 854.56&#10;  Q 130.00 846.55 121.79 838.70&#10;  Q 114.00 831.25 102.72 818.88&#10;  Q 99.89 815.77 97.19 812.32&#10;  Q 94.62 809.04 91.51 805.82&#10;  Q 90.76 805.04 91.84 804.96&#10;  Q 94.40 804.77 97.25 804.77&#10;  Q 492.47 804.66 831.25 804.92&#10;  Q 837.03 804.92 842.86 804.91&#10;  Q 843.44 804.91 843.09 805.37&#10;  C 838.68 811.22 833.23 816.41 828.70 821.92&#10;  Q 824.75 826.73 820.33 831.11&#10;  C 813.47 837.93 806.93 844.82 799.50 850.83&#10;  C 795.44 854.12 792.15 858.01 788.01 861.14&#10;  Q 780.66 866.69 773.56 872.45&#10;  Q 771.24 874.33 768.79 875.95&#10;  C 766.48 877.48 764.53 879.45 762.21 881.11&#10;  Q 744.01 894.16 734.41 899.59&#10;  Q 729.59 902.31 725.27 905.11&#10;  Q 720.70 908.08 716.14 910.70&#10;  C 711.95 913.12 707.96 915.55 703.70 917.66&#10;  C 695.35 921.78 687.04 926.39 678.39 929.97&#10;  Q 675.25 931.27 671.77 932.89&#10;  C 666.77 935.23 661.57 937.04 656.54 939.29&#10;  Q 652.53 941.09 648.04 942.74&#10;  Q 625.77 950.95 602.39 957.60&#10;  Q 594.00 959.99 582.95 962.28&#10;  Q 571.78 964.60 560.63 967.00&#10;  Z"/>
</svg>